Coordinates
version=1
nRows=10
nColumns=46
inDegrees=yes

Units are S.I. units (second, meters, Newtons, ...)
Angles are in degrees.

endheader
time	pelvis_tilt	pelvis_list	pelvis_rotation	pelvis_tx	pelvis_ty	pelvis_tz	bb_angle	bb_tx	bb_ty	bb_tz	hip_flexion_r	hip_adduction_r	hip_rotation_r	knee_angle_r	knee_angle_r_beta	ankle_angle_r	subtalar_angle_r	mtp_angle_r	crank_angle_r	hip_flexion_l	hip_adduction_l	hip_rotation_l	knee_angle_l	knee_angle_l_beta	ankle_angle_l	subtalar_angle_l	mtp_angle_l	crank_angle_l	lumbar_extension	lumbar_bending	lumbar_rotation	arm_flex_r	arm_add_r	arm_rot_r	elbow_flex_r	pro_sup_r	wrist_flex_r	wrist_dev_r	arm_flex_l	arm_add_l	arm_rot_l	elbow_flex_l	pro_sup_l	wrist_flex_l	wrist_dev_l
      5.00500000	    -23.47013558	     -4.60985722	     -0.04008492	      0.07775865	      0.99209555	     -0.22201576	      0.00000000	      0.50000000	      0.00000000	      0.25000000	     77.15140529	     -7.70411782	     -2.94102599	    100.90275306	      1.76108527	    -12.37476640	    -11.21931545	      0.00000000	      0.00000000	     73.43543553	     -1.85058867	     10.41003390	     54.62528891	      0.95339115	     -4.04246596	    -18.61898850	      0.00000000	      0.00000000	    -46.29112392	      9.76832209	      1.21973350	     85.31346250	     -8.50984009	     28.67984264	     53.07800587	     48.33362069	      0.00000000	      0.00000000	     89.27232733	    -34.37576698	     56.49679872	     64.82428396	     40.57194061	      0.00000000	      0.00000000
      5.01000000	    -23.67446521	     -4.99597421	     -0.67354867	      0.07732653	      0.99130699	     -0.22292233	      0.00000000	      0.50000000	      0.00000000	      0.25000000	     78.94334818	     -7.30663426	     -2.83671511	    102.71950835	      1.79279363	    -12.28610323	    -11.20939730	      0.00000000	      0.00000000	     72.07690581	     -2.63103747	     10.51672275	     52.56579538	      0.91744620	     -4.52015802	    -18.27291008	      0.00000000	      0.00000000	    -46.16102771	     10.14778875	      1.87808678	     85.64107557	     -8.24452578	     28.82279261	     53.11941201	     48.34537341	      0.00000000	      0.00000000	     89.22436191	    -34.70987171	     56.53174607	     64.76001134	     40.58589924	      0.00000000	      0.00000000
      5.01500000	    -23.85133342	     -4.90095123	     -1.39017521	      0.07706676	      0.99072743	     -0.22394967	      0.00000000	      0.50000000	      0.00000000	      0.25000000	     80.86507431	     -7.04074745	     -2.17388555	    104.51359342	      1.82410632	    -11.92484555	    -10.92533648	      0.00000000	      0.00000000	     70.55444067	     -3.27504558	      9.98520670	     50.39719012	      0.87959690	     -5.73199645	    -18.97045858	      0.00000000	      0.00000000	    -45.96775268	     10.15298883	      1.97798530	     86.09979214	     -7.78073339	     29.94386201	     52.38372725	     48.33800308	      0.00000000	      0.00000000	     89.23963377	    -35.65572900	     57.53306938	     64.75957953	     40.74589488	      0.00000000	      0.00000000
      5.02000000	    -24.05014857	     -5.24337790	     -2.04683611	      0.07679726	      0.99017583	     -0.22490224	      0.00000000	      0.50000000	      0.00000000	      0.25000000	     82.66463570	     -6.64376164	     -2.04206979	    106.12659756	      1.85225855	    -11.92375568	    -10.81414421	      0.00000000	      0.00000000	     69.14346359	     -4.10440265	      9.93511197	     48.41653287	      0.84502791	     -6.11229254	    -18.54213541	      0.00000000	      0.00000000	    -45.87907431	     10.53860537	      2.68903718	     86.41059826	     -7.51448291	     30.14772378	     52.38411352	     48.34870605	      0.00000000	      0.00000000	     89.18225400	    -35.99980596	     57.58236795	     64.72140301	     40.76226321	      0.00000000	      0.00000000
      5.02500000	    -24.21307738	     -5.16306833	     -2.87486298	      0.07670079	      0.98992973	     -0.22548313	      0.00000000	      0.50000000	      0.00000000	      0.25000000	     84.58950979	     -6.18936673	     -1.48324451	    107.67952746	      1.87936229	    -11.95613086	    -10.35548462	      0.00000000	      0.00000000	     67.52751563	     -4.93908596	      9.22762661	     46.24784329	      0.80717714	     -7.15869124	    -18.76126212	      0.00000000	      0.00000000	    -45.74355772	     10.53326812	      2.41665007	     87.45496987	     -6.74682761	     33.08582209	     50.40263753	     48.26792611	      0.00000000	      0.00000000	     89.20535571	    -38.06946506	     59.15807321	     65.69415234	     41.32129935	      0.00000000	      0.00000000
      5.03000000	    -24.33136369	     -5.25459210	     -3.68665084	      0.07684610	      0.98992353	     -0.22606766	      0.00000000	      0.50000000	      0.00000000	      0.25000000	     86.40816061	     -5.71912748	     -1.15935384	    109.07675477	      1.90374851	    -12.10930026	    -10.08021497	      0.00000000	      0.00000000	     65.88835031	     -5.86735092	      8.67313596	     44.20539716	      0.77152973	     -7.62930132	    -18.24043326	      0.00000000	      0.00000000	    -45.76842222	     10.60147269	      3.05675631	     87.68881334	     -6.49636865	     33.19211339	     50.50877237	     48.27680740	      0.00000000	      0.00000000	     89.13487467	    -38.34669177	     59.25884992	     65.62032641	     41.34444419	      0.00000000	      0.00000000
      5.03500000	    -24.40740191	     -5.34714566	     -4.51725946	      0.07711906	      0.99002557	     -0.22660643	      0.00000000	      0.50000000	      0.00000000	      0.25000000	     88.16749098	     -5.28836381	     -0.95823070	    110.38894583	      1.92665056	    -12.31597617	     -9.80904589	      0.00000000	      0.00000000	     64.17975486	     -6.78133847	      8.10919809	     42.22000673	      0.73687813	     -8.03222812	    -17.83769298	      0.00000000	      0.00000000	    -45.84551731	     10.57728842	      3.65751190	     87.84594118	     -6.27268995	     33.38689960	     50.58456027	     48.29275002	      0.00000000	      0.00000000	     89.06574105	    -38.62425607	     59.49399319	     65.54777422	     41.37668980	      0.00000000	      0.00000000
      5.04000000	    -24.37743062	     -5.23305264	     -5.45509777	      0.07769270	      0.99036431	     -0.22689847	      0.00000000	      0.50000000	      0.00000000	      0.25000000	     89.87662181	     -4.74232500	     -0.51992166	    111.62286817	      1.94818657	    -12.38639713	     -9.36216981	      0.00000000	      0.00000000	     62.30542679	     -7.70550677	      7.04747532	     40.24554650	      0.70241730	     -8.81071147	    -17.82387117	      0.00000000	      0.00000000	    -45.95498195	     10.31937960	      4.03432179	     88.09374943	     -6.23540487	     34.89619752	     50.31467034	     48.29566701	      0.00000000	      0.00000000	     89.12534281	    -39.48772080	     60.85400329	     65.75739951	     41.72049496	      0.00000000	      0.00000000
      5.04500000	    -24.33631860	     -5.27871456	     -6.28399731	      0.07806105	      0.99066907	     -0.22709606	      0.00000000	      0.50000000	      0.00000000	      0.25000000	     91.57683642	     -4.29293785	     -0.40032259	    112.71766365	      1.96729436	    -12.93531300	     -9.33744345	      0.00000000	      0.00000000	     60.51530325	     -8.61001972	      6.22100710	     38.41249343	      0.67042448	     -9.28254365	    -17.19853834	      0.00000000	      0.00000000	    -46.15851837	     10.19457943	      4.64030720	     88.23283001	     -6.07551952	     35.07630360	     50.40931025	     48.29563570	      0.00000000	      0.00000000	     89.05634268	    -39.68752943	     60.96186635	     65.72863927	     41.76486555	      0.00000000	      0.00000000
      5.05000000	    -24.39838700	     -5.36237530	     -6.91279144	      0.07834156	      0.99076221	     -0.22722627	      0.00000000	      0.50000000	      0.00000000	      0.25000000	     93.36201453	     -4.03289734	     -0.36483430	    113.75430404	      1.98538714	    -12.99042119	     -9.21342862	      0.00000000	      0.00000000	     58.97656001	     -9.36233820	      5.53430104	     36.79417016	      0.64217941	     -9.62295249	    -16.56763668	      0.00000000	      0.00000000	    -46.22808246	     10.23416103	      5.17755871	     88.38968908	     -5.90896234	     35.21680620	     50.53832788	     48.30646396	      0.00000000	      0.00000000	     88.99374482	    -39.85122385	     61.06744434	     65.68393077	     41.79209723	      0.00000000	      0.00000000
